<svg xmlns="http://www.w3.org/2000/svg" xmlns:xlink="http://www.w3.org/1999/xlink" viewBox="0 0 680 680"><defs><filter id="b" width="109.7%" height="109.7%" x="-4.8%" y="-4.5%" filterUnits="objectBoundingBox"><feOffset dy="2" in="SourceAlpha" result="shadowOffsetOuter1"/><feGaussianBlur in="shadowOffsetOuter1" result="shadowBlurOuter1" stdDeviation="10"/><feColorMatrix in="shadowBlurOuter1" values="0 0 0 0 0 0 0 0 0 0 0 0 0 0 0 0 0 0 0.5 0"/></filter><filter id="d" width="107.6%" height="106.7%" x="-3.8%" y="-2.9%" filterUnits="objectBoundingBox"><feOffset dy="2" in="SourceAlpha" result="shadowOffsetOuter1"/><feGaussianBlur in="shadowOffsetOuter1" result="shadowBlurOuter1" stdDeviation="5"/><feColorMatrix in="shadowBlurOuter1" values="0 0 0 0 0 0 0 0 0 0 0 0 0 0 0 0 0 0 0.5 0"/></filter><circle id="a" cx="320" cy="320" r="320"/><path id="c" d="M329 93c1 1 73 59 190 59 7 0 12 5 12 12 0 6 7 159-35 250-32 70-96 126-176 155-74-27-134-80-168-141-3-5-2-11 2-15l127-123c5-5 13-5 18 0l53 53 68-68h-42l25-26h60v60l-25 26v-42l-77 77c-5 5-13 5-18 0l-53-53-111 107c31 52 78 90 141 114 72-27 125-74 153-136 32.01-68.87 32.9703-181.9623 32.999109-222.454756l.000858-2.411072C506 176.7481 506 176.37 506 176c-98-3-164-43-186-59-23 16-93 59-198 59-7 0-12-6-12-12s6-12 13-12c117 0 189-58 190-59 5-4 11-4 16 0Z"/></defs><g fill="none" fill-rule="evenodd"><path d="M0 0h680v680H0z"/><g fill-rule="nonzero"><g transform="translate(20 20)"><use xlink:href="#a" fill="#000" filter="url(#b)"/><use xlink:href="#a" fill="#0071BC"/></g><g transform="translate(20 20)"><use xlink:href="#c" fill="#000" filter="url(#d)"/><use xlink:href="#c" fill="#FFF"/></g></g></g></svg>